<?xml version="1.0" encoding="UTF-8" standalone="no"?>
<!-- Created with Inkscape (http://www.inkscape.org/) -->

<svg
   xmlns:dc="http://purl.org/dc/elements/1.1/"
   xmlns:cc="http://creativecommons.org/ns#"
   xmlns:rdf="http://www.w3.org/1999/02/22-rdf-syntax-ns#"
   xmlns:svg="http://www.w3.org/2000/svg"
   xmlns="http://www.w3.org/2000/svg"
   version="1.1"
   width="393.43292"
   height="309.02295"
   id="svg2"
   xml:space="preserve"><metadata
     id="metadata8"><rdf:RDF><cc:Work
         rdf:about=""><dc:format>image/svg+xml</dc:format><dc:type
           rdf:resource="http://purl.org/dc/dcmitype/StillImage" /><dc:title></dc:title></cc:Work></rdf:RDF></metadata><defs
     id="defs6"><filter
       color-interpolation-filters="sRGB"
       id="filter3185"><feFlood
         flood-opacity="1"
         flood-color="rgb(204,204,204)"
         result="flood"
         id="feFlood3187" /><feComposite
         in2="SourceGraphic"
         operator="in"
         in="flood"
         result="composite1"
         id="feComposite3189" /><feGaussianBlur
         stdDeviation="5"
         result="blur"
         id="feGaussianBlur3191" /><feOffset
         dx="5"
         dy="-5"
         result="offset"
         id="feOffset3193" /><feComposite
         in2="offset"
         operator="over"
         in="SourceGraphic"
         result="composite2"
         id="feComposite3195" /></filter></defs><path
     d="m 180.96306,-112.08632 c 0.666,-54.194 -51.403,-104.526 -122.601,-112.986 -71.201,-8.455 -128.526,28.164 -129.184,82.366 -0.66,54.195 55.593,104.521 126.784,112.982 71.199,8.456 124.337,-28.163 125.001,-82.362"
     transform="matrix(1.25,0,0,-1.25,127.8779,-4.73626)"
     id="path3228"
     style="fill:#ffffff;fill-opacity:1;fill-rule:nonzero;stroke:none;filter:url(#filter3185)" /><path
     d="m 70.90746,-205.91932 c -62.399,-10.963 -116.674,13.348 -121.17,57.082 -4.258,41.397 36.584,84.271 94.146,98.063 54.622,13.601 109.337,-8.322 117.309,-51.822 4.037,-22.007 -3.773,-45.124 -19.672,-64.721 20.102,21.507 30.119,47.595 24.9,72.157 -9.433,44.44 -65.665,68.028 -127.325,53.141 -61.684,-14.247 -105.75,-62.324 -99.665,-109.132 6.311,-48.491 64.184,-75.626 129.204,-63.382 53.463,10.071 95.074,42.901 104.707,82.009 -10.521,-35.167 -51.244,-64.384 -102.434,-73.395 m -91.258,46.305 c 1.292,-6.888 2.152,-14.195 2.801,-21.51 0.424,-4.31 0.861,-7.316 1.501,-9.254 0.434,-1.725 1.29,-2.581 2.797,-2.151 1.718,0.426 3.65,1.505 5.382,3.226 l 0,0.223 c 0,3.434 4.945,14.836 14.834,34.2 6.025,11.188 9.041,17.206 9.041,18.281 0,2.581 -2.581,3.229 -7.536,1.935 -2.148,-8.171 -7.737,-21.297 -16.989,-39.145 -0.867,9.458 -1.504,16.341 -2.154,21.077 -0.428,6.024 -1.291,9.458 -2.145,10.541 -0.864,1.078 -2.157,1.286 -3.658,0.861 -2.366,-0.641 -4.952,-2.579 -8.178,-5.591 1.728,-1.514 3.226,-5.811 4.304,-12.693 m 44.531,13.34 c 0.862,1.077 1.941,1.72 3.012,1.929 1.717,0.653 2.575,-0.428 2.575,-3.226 -0.211,-4.52 -1.934,-7.962 -5.587,-10.317 -1.509,-1.076 -3.438,-1.942 -5.593,-2.374 1.509,6.883 3.434,11.619 5.593,13.988 m -6.239,-19.364 c 2.155,0.641 4.303,1.504 6.239,2.57 3.224,1.518 6.237,3.67 8.6,6.247 3.018,3.009 4.732,6.029 5.601,9.466 0.426,1.505 0.637,3.01 0.637,4.52 0,1.282 -0.211,2.365 -0.637,3.227 -1.079,2.142 -3.451,2.798 -7.316,1.717 -2.376,-0.64 -4.738,-1.717 -6.885,-3.007 -3.659,-2.578 -7.1,-6.023 -10.117,-10.542 -4.722,-7.317 -7.099,-14.845 -7.313,-22.369 -0.21,-7.959 4.093,-10.766 12.913,-8.392 1.498,0.208 3.008,0.857 4.517,1.502 2.147,1.069 4.088,2.362 6.237,3.864 3.654,2.591 5.588,5.166 5.588,7.754 0,0.86 -0.207,1.722 -0.643,2.579 -4.084,-4.514 -7.958,-7.529 -11.182,-8.603 -0.426,-0.22 -0.644,-0.22 -1.078,-0.431 -3.661,-0.86 -5.593,1.075 -5.375,6.019 0,1.082 0,2.376 0.214,3.879 m 55.283,30.548 0,4.088 c -0.65,2.792 -2.367,3.652 -5.815,2.792 -4.942,-1.287 -10.319,-6.237 -14.187,-14.408 0.855,4.303 1.074,5.369 1.074,6.879 0,2.369 -1.292,3.232 -4.09,2.576 -1.935,-0.644 -4.092,-1.501 -6.455,-3.223 0.43,-0.863 0.43,-1.721 0.43,-2.793 0,-3.873 -1.506,-12.051 -4.299,-24.313 l -1.297,-4.943 c 0,-0.435 0,-0.646 -0.204,-0.859 -0.431,-1.722 -0.431,-3.021 -0.645,-4.084 0,-0.866 0.214,-1.727 0.645,-2.158 0.853,-0.641 2.144,-0.86 4.081,-0.217 1.934,0.428 3.652,1.075 5.597,2.16 -0.211,1.069 -0.434,1.924 -0.434,2.577 0,5.589 9.247,31.618 14.625,32.909 0.646,0.216 0.866,-0.208 0.866,-1.291 -0.22,-9.037 -4.307,-17.848 -4.525,-26.887 0,-3.441 1.722,-4.731 5.165,-3.873 2.156,0.432 4.307,1.723 6.464,3.873 -1.078,1.079 -1.727,3.01 -1.511,5.377 0,8.817 3.657,16.999 4.515,25.818 m 47.646,-2.232 -0.431,-0.645 c -2.8,-5.591 -4.944,-8.6 -6.024,-8.817 -1.289,-0.43 -1.715,0.858 -1.715,3.656 0,4.301 1.073,9.248 3.004,15.059 1.292,4.51 3.014,7.526 4.735,8.811 0.641,0.439 1.077,0.65 1.501,0.866 2.157,0.645 4.308,-0.427 6.453,-2.798 -1.931,-4.733 -4.507,-10.108 -7.523,-16.132 m 15.707,12.909 c 1.287,6.885 2.578,12.046 4.083,15.057 -2.151,0.645 -4.083,0.645 -6.24,0 -1.934,-0.435 -3.215,-1.514 -4.302,-3.011 -2.143,1.069 -4.518,1.069 -7.099,0.436 -0.862,-0.219 -1.716,-0.653 -2.58,-1.081 -4.305,-1.934 -8.399,-6.246 -11.84,-12.911 -1.499,-3.004 -2.997,-6.236 -3.866,-9.256 -1.503,-4.511 -2.363,-8.812 -2.363,-12.892 0,-4.312 0.642,-6.894 2.363,-8.399 1.072,-0.861 2.584,-1.072 4.738,-0.425 3.44,0.856 7.095,4.512 10.968,11.177 1.501,2.59 3.224,5.387 4.729,8.826 -0.642,-3.656 -0.851,-6.666 -0.851,-9.034 -0.22,-4.52 1.715,-6.235 5.587,-5.161 2.145,0.434 4.083,1.722 5.804,3.662 -1.07,1.933 -1.5,4.297 -1.288,6.877 0,4.094 0.638,9.25 2.157,16.135 m -41.344,-1.145 c 2.372,0.645 4.303,-0.433 5.809,-3.443 1.291,1.078 2.363,2.149 3.227,3.227 1.503,1.938 2.156,3.443 2.156,4.733 0.207,1.505 -0.653,2.149 -2.156,2.36 -1.506,0.217 -3.438,0 -6.228,-0.855 -6.676,-1.721 -12.272,-6.022 -17.01,-13.123 -4.081,-6.447 -6.45,-13.12 -6.868,-20.003 -0.222,-0.863 -0.222,-1.726 -0.222,-2.373 0,-1.072 0,-1.924 0.222,-2.794 0.642,-6.029 4.51,-8.175 11.39,-6.24 3.446,0.866 6.895,2.589 10.118,4.733 3.219,2.377 4.94,4.733 4.94,6.891 0,0.644 0,1.499 -0.429,2.582 -3.66,-3.662 -6.879,-5.814 -9.894,-6.672 -3.447,-0.863 -5.161,1.5 -5.161,7.316 0.426,13.984 3.659,21.938 10.106,23.661 m -78.09,44.854 c -1.502,0.861 -4.299,0.861 -8.597,-0.213 -7.534,-1.941 -13.987,-7.529 -19.367,-16.564 -5.373,-9.039 -8.167,-18.287 -8.384,-27.966 -0.218,-9.898 3.873,-13.768 12.26,-11.614 3.444,0.858 7.308,3.009 11.828,6.238 4.514,3.224 6.671,6.019 6.671,8.6 0,0.432 0,1.292 -0.426,2.799 -4.952,-5.161 -9.254,-8.175 -12.692,-9.036 -4.511,-1.288 -6.669,1.943 -6.452,9.036 0.208,7.099 1.495,13.984 4.085,20.864 2.367,6.891 5.588,10.758 9.67,11.834 3.455,0.859 6.033,-1.076 7.537,-5.59 1.719,1.934 3.008,3.656 3.867,4.944 0.866,1.505 1.296,2.795 1.515,3.658 0,1.294 -0.431,2.36 -1.515,3.01 m 52.854,-18.895 -0.427,-0.433 c -2.797,-5.591 -4.946,-8.597 -6.025,-8.814 -1.295,-0.433 -1.715,0.859 -1.715,3.659 0,4.295 1.066,9.239 3.013,15.055 1.286,4.512 3.003,7.527 4.727,8.82 0.65,0.425 1.067,0.642 1.499,0.855 2.155,0.433 4.307,-0.43 6.461,-3.009 -1.939,-4.733 -4.518,-10.111 -7.533,-16.133 m 9.036,-13.764 c 2.151,0.642 4.091,1.715 5.813,3.654 -1.08,1.935 -1.509,4.297 -1.298,7.099 0,3.87 0.651,9.254 2.158,16.134 1.071,6.24 2.367,10.975 3.655,14.199 0.213,0.211 0.213,0.43 0.433,0.858 l -0.433,0 c -1.937,0.432 -3.873,0.432 -5.813,-0.211 -1.939,-0.436 -3.231,-1.292 -4.294,-2.803 -2.152,0.865 -4.522,1.081 -7.105,0.22 -0.852,-0.22 -1.72,-0.436 -2.579,-0.862 -4.307,-1.933 -8.387,-6.237 -11.825,-12.689 -4.102,-7.751 -6.03,-15.28 -6.244,-22.379 -0.226,-7.098 2.142,-10.111 7.09,-8.813 3.456,0.859 7.105,4.516 10.979,11.182 1.499,2.362 3.227,5.379 4.737,8.82 -0.65,-3.656 -0.859,-6.669 -0.859,-9.033 -0.224,-4.523 1.717,-6.239 5.585,-5.376 m -62.815,-5.38 -0.213,-0.863 c -0.648,-3.01 -1.08,-5.162 -1.08,-6.663 0,-1.293 0.432,-2.16 1.293,-2.586 0.862,-0.216 1.937,-0.216 3.445,0.217 1.719,0.428 3.656,1.076 5.379,2.153 -0.215,1.07 -0.437,1.934 -0.437,2.579 0.222,6.879 7.099,24.738 13.98,27.751 3.015,1.288 -2.787,-19.145 -2.787,-23.016 0,-3.658 1.714,-4.946 5.164,-4.095 1.928,0.65 4.087,1.947 6.229,3.876 -1.077,1.293 -1.507,3.015 -1.507,5.38 0.223,9.242 3.658,13.767 3.879,22.799 0.218,13.77 -18.074,-3.01 -20.437,-9.247 2.796,13.769 4.303,21.516 4.303,22.803 0.211,2.58 -1.292,3.656 -4.088,2.795 -2.149,-0.432 -4.084,-1.72 -6.239,-3.659 0.217,-0.86 0.217,-1.717 0.217,-2.368 -0.217,-10.105 -3.656,-22.157 -5.592,-32.051 0,-0.214 -0.428,-2.151 -1.509,-5.805 m 73.143,14.201 c -0.216,-1.081 -0.216,-1.941 -0.216,-2.586 0,-0.646 0,-1.29 0.216,-1.718 0.64,-1.077 2.151,-1.297 4.296,-0.652 1.939,0.435 3.88,1.296 5.596,2.159 -0.213,1.069 -0.426,1.927 -0.426,2.571 0,3.229 1.723,8.613 5.155,16.136 3.228,7.528 6.247,11.624 8.611,12.052 0.646,0.213 1.507,-0.217 2.369,-1.294 3.44,4.952 5.156,9.467 5.374,13.125 0,1.938 -1.081,2.796 -3.012,2.149 -3.655,-0.86 -8.39,-7.315 -14.202,-19.358 1.512,6.666 2.372,10.758 2.372,12.254 0,2.59 -1.284,3.448 -4.081,2.59 -1.94,-0.428 -4.093,-1.51 -6.46,-3.015 0.427,-0.858 0.427,-1.718 0.427,-2.793 0,-4.301 -1.505,-12.479 -4.295,-24.313 -0.866,-3.008 -1.291,-5.592 -1.724,-7.307"
     transform="matrix(1.25,0,0,-1.25,127.8779,-4.73626)"
     id="path3230"
     style="fill:#EF2E24;fill-opacity:1;fill-rule:nonzero;stroke:none" /><path
     d="m 125.32636,-77.35972 c -0.19,0.061 -0.456,0.087 -0.8,0.081 l -0.325,-0.011 0.044,-1.522 0.535,0.017 c 0.322,0.008 0.574,0.084 0.745,0.219 0.176,0.135 0.26,0.346 0.251,0.631 -0.013,0.289 -0.158,0.479 -0.45,0.585 m -2.355,-4.295 -0.174,5.243 c 0.321,0.01 0.807,0.025 1.46,0.044 0.643,0.021 1.008,0.028 1.082,0.028 0.412,-0.016 0.757,-0.098 1.037,-0.241 0.479,-0.234 0.724,-0.642 0.743,-1.223 0.017,-0.436 -0.103,-0.763 -0.335,-0.966 -0.24,-0.207 -0.543,-0.331 -0.896,-0.382 0.33,-0.059 0.583,-0.152 0.756,-0.275 0.314,-0.243 0.477,-0.627 0.496,-1.165 l 0.021,-0.464 c 0,-0.057 0.01,-0.107 0.01,-0.155 0.008,-0.056 0.027,-0.101 0.05,-0.151 l 0.041,-0.152 -1.3,-0.04 c -0.047,0.164 -0.096,0.403 -0.11,0.72 -0.028,0.316 -0.063,0.529 -0.108,0.641 -0.073,0.181 -0.207,0.302 -0.401,0.368 -0.105,0.042 -0.267,0.066 -0.474,0.069 l -0.303,0.011 -0.282,-0.011 0.059,-1.855 -1.372,-0.044 z m -0.886,5.346 c -0.73,-0.798 -1.074,-1.724 -1.039,-2.779 0.034,-1.096 0.454,-2.013 1.242,-2.75 0.789,-0.746 1.719,-1.099 2.799,-1.054 1.071,0.03 1.982,0.449 2.711,1.245 0.738,0.802 1.092,1.741 1.051,2.824 -0.036,1.052 -0.447,1.949 -1.232,2.7 -0.792,0.762 -1.721,1.127 -2.79,1.085 -1.092,-0.034 -2.002,-0.458 -2.742,-1.271 m 6.291,-5.929 c -0.885,-0.924 -1.976,-1.406 -3.266,-1.45 -1.325,-0.042 -2.468,0.374 -3.405,1.257 -0.941,0.881 -1.435,1.985 -1.481,3.319 -0.043,1.378 0.405,2.542 1.358,3.492 0.896,0.884 1.969,1.356 3.216,1.392 1.308,0.046 2.429,-0.379 3.386,-1.27 0.959,-0.892 1.456,-1.995 1.497,-3.301 0.047,-1.339 -0.389,-2.491 -1.305,-3.439"
     transform="matrix(1.25,0,0,-1.25,127.8779,-4.73626)"
     id="path3232"
     style="fill:#858588;fill-opacity:1;fill-rule:nonzero;stroke:none" /></svg>